<svg width="25" height="25" viewBox="0 0 25 25" fill="none" xmlns="http://www.w3.org/2000/svg">
<path d="M2.73438 12.8906V21.7773C2.73438 22.2095 3.0835 22.5586 3.51562 22.5586H5.10254V12.1094H3.51562C3.0835 12.1094 2.73438 12.4585 2.73438 12.8906ZM21.6284 13.0298C22.0386 12.4878 22.2656 11.8237 22.2656 11.1328C22.2656 10.0366 21.6528 8.99658 20.6665 8.42285C20.4126 8.27391 20.1235 8.19553 19.8291 8.1958H13.9722L14.1187 5.19531C14.1553 4.47021 13.8989 3.78174 13.3984 3.25683C13.1542 2.99786 12.8594 2.79184 12.5322 2.65157C12.205 2.5113 11.8525 2.43976 11.4966 2.44141C10.2271 2.44141 9.104 3.2959 8.76709 4.51904L6.67236 12.1069L6.66504 22.5562H18.1909C18.418 22.5562 18.6353 22.5122 18.8379 22.4243C20 21.9287 20.7495 20.7935 20.7495 19.5337C20.7495 19.2261 20.7056 18.9233 20.6177 18.6304C21.0278 18.0884 21.2549 17.4243 21.2549 16.7334C21.2549 16.4258 21.2109 16.123 21.123 15.8301C21.5332 15.2881 21.7603 14.624 21.7603 13.9331C21.7603 13.6255 21.7163 13.3228 21.6284 13.0298ZM20.0293 12.1826L19.4946 12.6465L19.8364 13.269C19.9482 13.4733 20.0062 13.7027 20.0049 13.9355C20.0049 14.3384 19.8315 14.7217 19.5264 14.9854L18.9917 15.4492L19.3311 16.0693C19.4429 16.2736 19.5008 16.503 19.4995 16.7358C19.4995 17.1387 19.3262 17.522 19.021 17.7856L18.4863 18.2495L18.8257 18.8696C18.9375 19.0739 18.9955 19.3033 18.9941 19.5361C18.9941 20.083 18.6719 20.5762 18.1738 20.8008H8.42285V12.373C8.87695 10.7324 9.55566 8.27148 10.4614 4.98779C10.5247 4.76257 10.6593 4.56396 10.8451 4.42177C11.0309 4.27958 11.2578 4.20149 11.4917 4.19922C11.6748 4.19678 11.8579 4.25293 12.0068 4.36279C12.2485 4.54346 12.3779 4.81689 12.3633 5.10742L12.1289 9.95117H19.8047C20.2393 10.2173 20.5078 10.6665 20.5078 11.1328C20.5078 11.5356 20.3345 11.9189 20.0293 12.1826Z" fill="#FFA500"/>
</svg>
