<svg width="19" height="19" viewBox="0 0 19 19" fill="none" xmlns="http://www.w3.org/2000/svg">
<path d="M16.0312 5.9375H12.4688C11.9965 5.93797 11.5437 6.12579 11.2097 6.45974C10.8758 6.79368 10.688 7.24648 10.6875 7.71875V11.2813C10.6878 11.5961 10.813 11.898 11.0357 12.1206C11.2583 12.3432 11.5602 12.4684 11.875 12.4688V16.625C11.8753 16.9399 12.0005 17.2417 12.2232 17.4643C12.4458 17.687 12.7477 17.8122 13.0625 17.8125H15.4375C15.7523 17.8122 16.0542 17.687 16.2768 17.4643C16.4995 17.2417 16.6247 16.9399 16.625 16.625V12.4688C16.9398 12.4684 17.2417 12.3432 17.4643 12.1206C17.687 11.898 17.8122 11.5961 17.8125 11.2813V7.71875C17.812 7.24648 17.6242 6.79368 17.2903 6.45974C16.9563 6.12579 16.5035 5.93797 16.0312 5.9375V5.9375ZM16.625 11.2813H15.4375V16.625H13.0625V11.2813H11.875V7.71875C11.875 7.56128 11.9376 7.41026 12.0489 7.29891C12.1603 7.18756 12.3113 7.125 12.4688 7.125H16.0312C16.1887 7.125 16.3397 7.18756 16.4511 7.29891C16.5624 7.41026 16.625 7.56128 16.625 7.71875V11.2813ZM11.875 2.96875C11.875 2.49902 12.0143 2.03984 12.2753 1.64927C12.5362 1.2587 12.9072 0.954293 13.3411 0.774535C13.7751 0.594777 14.2526 0.547744 14.7133 0.639384C15.174 0.731024 15.5972 0.957221 15.9294 1.28937C16.2615 1.62152 16.4877 2.04471 16.5794 2.50541C16.671 2.96612 16.624 3.44365 16.4442 3.87762C16.2645 4.3116 15.96 4.68252 15.5695 4.94349C15.1789 5.20446 14.7197 5.34375 14.25 5.34375C13.6203 5.34312 13.0166 5.0927 12.5713 4.64743C12.1261 4.20217 11.8756 3.59845 11.875 2.96875V2.96875ZM13.0625 2.96875C13.0625 3.20362 13.1321 3.43321 13.2626 3.62849C13.3931 3.82377 13.5786 3.97598 13.7956 4.06586C14.0126 4.15574 14.2513 4.17925 14.4817 4.13343C14.712 4.08761 14.9236 3.97451 15.0897 3.80844C15.2558 3.64236 15.3689 3.43077 15.4147 3.20042C15.4605 2.97007 15.437 2.7313 15.3471 2.51431C15.2572 2.29733 15.105 2.11186 14.9097 1.98138C14.7145 1.8509 14.4849 1.78125 14.25 1.78125C13.9352 1.78156 13.6333 1.90678 13.4107 2.12941C13.188 2.35204 13.0628 2.6539 13.0625 2.96875V2.96875ZM8.3125 9.5V7.71875C8.31203 7.24648 8.12421 6.79368 7.79026 6.45974C7.45632 6.12579 7.00352 5.93797 6.53125 5.9375H2.96875C2.49648 5.93797 2.04368 6.12579 1.70974 6.45974C1.37579 6.79368 1.18797 7.24648 1.1875 7.71875V9.5H0V10.6875H9.5V9.5H8.3125ZM2.375 7.71875C2.375 7.56128 2.43756 7.41026 2.54891 7.29891C2.66026 7.18756 2.81128 7.125 2.96875 7.125H6.53125C6.68872 7.125 6.83974 7.18756 6.95109 7.29891C7.06244 7.41026 7.125 7.56128 7.125 7.71875V9.5H2.375V7.71875ZM2.375 2.96875C2.375 2.49902 2.51429 2.03984 2.77526 1.64927C3.03623 1.2587 3.40715 0.954293 3.84113 0.774535C4.2751 0.594777 4.75263 0.547744 5.21334 0.639384C5.67404 0.731024 6.09723 0.957221 6.42938 1.28937C6.76153 1.62152 6.98773 2.04471 7.07937 2.50541C7.17101 2.96612 7.12397 3.44365 6.94421 3.87762C6.76446 4.3116 6.46005 4.68252 6.06948 4.94349C5.67891 5.20446 5.21973 5.34375 4.75 5.34375C4.1203 5.34312 3.51658 5.0927 3.07132 4.64743C2.62605 4.20217 2.37563 3.59845 2.375 2.96875V2.96875ZM3.5625 2.96875C3.5625 3.20362 3.63215 3.43321 3.76263 3.62849C3.89311 3.82377 4.07858 3.97598 4.29556 4.06586C4.51255 4.15574 4.75132 4.17925 4.98167 4.13343C5.21202 4.08761 5.42361 3.97451 5.58969 3.80844C5.75576 3.64236 5.86886 3.43077 5.91468 3.20042C5.9605 2.97007 5.93699 2.7313 5.84711 2.51431C5.75723 2.29733 5.60502 2.11186 5.40974 1.98138C5.21446 1.8509 4.98487 1.78125 4.75 1.78125C4.43515 1.78156 4.13329 1.90678 3.91066 2.12941C3.68803 2.35204 3.56281 2.6539 3.5625 2.96875V2.96875Z" fill="#FFA500"/>
</svg>
