<svg width="22" height="22" viewBox="0 0 22 22" fill="none" xmlns="http://www.w3.org/2000/svg">
<path d="M11.6875 11.6875H15.2226C15.39 12.3356 15.7879 12.9004 16.3419 13.276C16.8959 13.6517 17.5678 13.8124 18.2318 13.7281C18.8958 13.6437 19.5063 13.3201 19.9487 12.8179C20.3912 12.3157 20.6353 11.6693 20.6353 11C20.6353 10.3307 20.3912 9.68431 19.9487 9.18209C19.5063 8.67987 18.8958 8.35626 18.2318 8.27192C17.5678 8.18758 16.8959 8.3483 16.3419 8.72396C15.7879 9.09962 15.39 9.66442 15.2226 10.3125H11.6875V4.8125H15.2226C15.39 5.46058 15.7879 6.02538 16.3419 6.40104C16.8959 6.7767 17.5678 6.93742 18.2318 6.85308C18.8958 6.76874 19.5063 6.44513 19.9487 5.94291C20.3912 5.44069 20.6353 4.79433 20.6353 4.125C20.6353 3.45567 20.3912 2.80931 19.9487 2.30709C19.5063 1.80487 18.8958 1.48126 18.2318 1.39692C17.5678 1.31258 16.8959 1.4733 16.3419 1.84896C15.7879 2.22462 15.39 2.78942 15.2226 3.4375H11.6875C11.3229 3.43786 10.9734 3.58285 10.7156 3.84063C10.4578 4.09841 10.3129 4.44794 10.3125 4.8125V10.3125H6.77738C6.61004 9.66442 6.21209 9.09962 5.65812 8.72396C5.10415 8.3483 4.43219 8.18758 3.76819 8.27192C3.10419 8.35626 2.49375 8.67987 2.05128 9.18209C1.60881 9.68431 1.3647 10.3307 1.3647 11C1.3647 11.6693 1.60881 12.3157 2.05128 12.8179C2.49375 13.3201 3.10419 13.6437 3.76819 13.7281C4.43219 13.8124 5.10415 13.6517 5.65812 13.276C6.21209 12.9004 6.61004 12.3356 6.77738 11.6875H10.3125V17.1875C10.3129 17.5521 10.4578 17.9016 10.7156 18.1594C10.9734 18.4172 11.3229 18.5621 11.6875 18.5625H15.2226C15.39 19.2106 15.7879 19.7754 16.3419 20.151C16.8959 20.5267 17.5678 20.6874 18.2318 20.6031C18.8958 20.5187 19.5063 20.1951 19.9487 19.6929C20.3912 19.1907 20.6353 18.5443 20.6353 17.875C20.6353 17.2057 20.3912 16.5593 19.9487 16.0571C19.5063 15.5549 18.8958 15.2313 18.2318 15.1469C17.5678 15.0626 16.8959 15.2233 16.3419 15.599C15.7879 15.9746 15.39 16.5394 15.2226 17.1875H11.6875V11.6875ZM17.875 9.625C18.1469 9.625 18.4128 9.70564 18.6389 9.85673C18.865 10.0078 19.0413 10.2226 19.1453 10.4738C19.2494 10.7251 19.2766 11.0015 19.2236 11.2682C19.1705 11.535 19.0396 11.78 18.8473 11.9723C18.655 12.1646 18.41 12.2955 18.1432 12.3486C17.8765 12.4016 17.6001 12.3744 17.3488 12.2703C17.0976 12.1663 16.8828 11.99 16.7317 11.7639C16.5806 11.5378 16.5 11.2719 16.5 11C16.5004 10.6354 16.6453 10.2859 16.9031 10.0281C17.1609 9.77035 17.5104 9.62536 17.875 9.625ZM17.875 2.75C18.1469 2.75 18.4128 2.83064 18.6389 2.98173C18.865 3.13282 19.0413 3.34756 19.1453 3.59881C19.2494 3.85006 19.2766 4.12652 19.2236 4.39325C19.1705 4.65997 19.0396 4.90497 18.8473 5.09727C18.655 5.28957 18.41 5.42052 18.1432 5.47358C17.8765 5.52663 17.6001 5.4994 17.3488 5.39533C17.0976 5.29126 16.8828 5.11503 16.7317 4.88891C16.5806 4.66279 16.5 4.39695 16.5 4.125C16.5004 3.76044 16.6453 3.41091 16.9031 3.15313C17.1609 2.89535 17.5104 2.75036 17.875 2.75ZM4.125 12.375C3.85305 12.375 3.58721 12.2944 3.36109 12.1433C3.13497 11.9922 2.95874 11.7774 2.85467 11.5262C2.7506 11.2749 2.72337 10.9985 2.77642 10.7317C2.82948 10.465 2.96043 10.22 3.15273 10.0277C3.34503 9.83543 3.59003 9.70447 3.85675 9.65142C4.12348 9.59836 4.39994 9.62559 4.65119 9.72966C4.90244 9.83374 5.11718 10.01 5.26827 10.2361C5.41936 10.4622 5.5 10.7281 5.5 11C5.49964 11.3646 5.35465 11.7141 5.09687 11.9719C4.83909 12.2297 4.48956 12.3746 4.125 12.375ZM17.875 16.5C18.1469 16.5 18.4128 16.5806 18.6389 16.7317C18.865 16.8828 19.0413 17.0976 19.1453 17.3488C19.2494 17.6001 19.2766 17.8765 19.2236 18.1432C19.1705 18.41 19.0396 18.655 18.8473 18.8473C18.655 19.0396 18.41 19.1705 18.1432 19.2236C17.8765 19.2766 17.6001 19.2494 17.3488 19.1453C17.0976 19.0413 16.8828 18.865 16.7317 18.6389C16.5806 18.4128 16.5 18.1469 16.5 17.875C16.5004 17.5104 16.6453 17.1609 16.9031 16.9031C17.1609 16.6453 17.5104 16.5004 17.875 16.5Z" fill="#FFA500"/>
</svg>
