<svg width="24" height="24" viewBox="0 0 24 24" fill="none" xmlns="http://www.w3.org/2000/svg">
<path d="M22.6067 12.3133L20.52 5.60667C20.436 5.33453 20.267 5.09645 20.0379 4.9273C19.8088 4.75814 19.5315 4.66681 19.2467 4.66667H4.75334C4.46853 4.66681 4.19125 4.75814 3.96211 4.9273C3.73297 5.09645 3.56402 5.33453 3.48 5.60667L1.39334 12.32C1.35378 12.4474 1.33355 12.58 1.33334 12.7133V18C1.33334 18.3536 1.47381 18.6927 1.72386 18.9428C1.97391 19.1928 2.31305 19.3333 2.66667 19.3333H21.3333C21.687 19.3333 22.0261 19.1928 22.2761 18.9428C22.5262 18.6927 22.6667 18.3536 22.6667 18V12.7067C22.6665 12.5733 22.6462 12.4407 22.6067 12.3133V12.3133ZM21.3333 18H2.66667V12.7067L4.75334 6H19.2467L21.3333 12.7067V18Z" fill="#FFA500"/>
<path d="M4.74667 14.6667H5.94667V16.6667H4.74667V14.6667Z" fill="#FFA500"/>
<path d="M8.08 14.6667H9.28001V16.6667H8.08V14.6667Z" fill="#FFA500"/>
<path d="M11.4067 14.6667H12.6067V16.6667H11.4067V14.6667Z" fill="#FFA500"/>
<path d="M14.7333 14.6667H15.9334V16.6667H14.7333V14.6667Z" fill="#FFA500"/>
<path d="M18.0667 14.6667H19.2667V16.6667H18.0667V14.6667Z" fill="#FFA500"/>
<path d="M4.15334 12H19.9467V12.9333H4.15334V12Z" fill="#FFA500"/>
</svg>
