<svg width="20" height="20" viewBox="0 0 20 20" fill="none" xmlns="http://www.w3.org/2000/svg">
<path d="M5 11.5C5 11.3674 5.05268 11.2402 5.14645 11.1464C5.24021 11.0527 5.36739 11 5.5 11H14.5C14.6326 11 14.7598 11.0527 14.8536 11.1464C14.9473 11.2402 15 11.3674 15 11.5C15 11.6326 14.9473 11.7598 14.8536 11.8536C14.7598 11.9473 14.6326 12 14.5 12H5.5C5.36739 12 5.24021 11.9473 5.14645 11.8536C5.05268 11.7598 5 11.6326 5 11.5ZM11.502 7.005C11.7016 7.005 11.893 6.92572 12.0341 6.7846C12.1752 6.64348 12.2545 6.45208 12.2545 6.2525C12.2545 6.05292 12.1752 5.86152 12.0341 5.7204C11.893 5.57928 11.7016 5.5 11.502 5.5C11.3024 5.5 11.111 5.57928 10.9699 5.7204C10.8288 5.86152 10.7495 6.05292 10.7495 6.2525C10.7495 6.45208 10.8288 6.64348 10.9699 6.7846C11.111 6.92572 11.3024 7.005 11.502 7.005ZM15.255 6.252C15.255 6.45158 15.1757 6.64298 15.0346 6.7841C14.8935 6.92522 14.7021 7.0045 14.5025 7.0045C14.3029 7.0045 14.1115 6.92522 13.9704 6.7841C13.8293 6.64298 13.75 6.45158 13.75 6.252C13.75 6.05242 13.8293 5.86102 13.9704 5.7199C14.1115 5.57878 14.3029 5.4995 14.5025 5.4995C14.7021 5.4995 14.8935 5.57878 15.0346 5.7199C15.1757 5.86102 15.255 6.05242 15.255 6.252ZM5.502 7.005C5.70158 7.005 5.89298 6.92572 6.0341 6.7846C6.17522 6.64348 6.2545 6.45208 6.2545 6.2525C6.2545 6.05292 6.17522 5.86152 6.0341 5.7204C5.89298 5.57928 5.70158 5.5 5.502 5.5C5.30242 5.5 5.11102 5.57928 4.9699 5.7204C4.82878 5.86152 4.7495 6.05292 4.7495 6.2525C4.7495 6.45208 4.82878 6.64348 4.9699 6.7846C5.11102 6.92572 5.30242 7.005 5.502 7.005ZM7.75 8.752C7.75 8.85082 7.73054 8.94867 7.69272 9.03997C7.6549 9.13127 7.59947 9.21422 7.5296 9.2841C7.45972 9.35397 7.37677 9.4094 7.28547 9.44722C7.19417 9.48504 7.09632 9.5045 6.9975 9.5045C6.89868 9.5045 6.80083 9.48504 6.70953 9.44722C6.61823 9.4094 6.53528 9.35397 6.4654 9.2841C6.39553 9.21422 6.3401 9.13127 6.30228 9.03997C6.26446 8.94867 6.245 8.85082 6.245 8.752C6.245 8.55242 6.32428 8.36102 6.4654 8.2199C6.60652 8.07878 6.79792 7.9995 6.9975 7.9995C7.19708 7.9995 7.38848 8.07878 7.5296 8.2199C7.67072 8.36102 7.75 8.55242 7.75 8.752ZM10.002 9.505C10.2016 9.505 10.393 9.42572 10.5341 9.2846C10.6752 9.14348 10.7545 8.95208 10.7545 8.7525C10.7545 8.55292 10.6752 8.36152 10.5341 8.2204C10.393 8.07928 10.2016 8 10.002 8C9.80242 8 9.61102 8.07928 9.4699 8.2204C9.32878 8.36152 9.2495 8.55292 9.2495 8.7525C9.2495 8.95208 9.32878 9.14348 9.4699 9.2846C9.61102 9.42572 9.80242 9.505 10.002 9.505ZM13.759 8.752C13.759 8.95144 13.6798 9.14272 13.5387 9.28374C13.3977 9.42477 13.2064 9.504 13.007 9.504C12.8076 9.504 12.6163 9.42477 12.4753 9.28374C12.3342 9.14272 12.255 8.95144 12.255 8.752C12.255 8.55256 12.3342 8.36128 12.4753 8.22026C12.6163 8.07923 12.8076 8 13.007 8C13.2064 8 13.3977 8.07923 13.5387 8.22026C13.6798 8.36128 13.759 8.55256 13.759 8.752ZM8.502 7.005C8.70158 7.005 8.89298 6.92572 9.0341 6.7846C9.17522 6.64348 9.2545 6.45208 9.2545 6.2525C9.2545 6.05292 9.17522 5.86152 9.0341 5.7204C8.89298 5.57928 8.70158 5.5 8.502 5.5C8.30242 5.5 8.11102 5.57928 7.9699 5.7204C7.82878 5.86152 7.7495 6.05292 7.7495 6.2525C7.7495 6.45208 7.82878 6.64348 7.9699 6.7846C8.11102 6.92572 8.30242 7.005 8.502 7.005ZM2 4.5C2 4.10218 2.15804 3.72064 2.43934 3.43934C2.72064 3.15804 3.10218 3 3.5 3H16.5C16.8978 3 17.2794 3.15804 17.5607 3.43934C17.842 3.72064 18 4.10218 18 4.5V12.5C18 12.8978 17.842 13.2794 17.5607 13.5607C17.2794 13.842 16.8978 14 16.5 14H11C11 14.2652 10.8946 14.5196 10.7071 14.7071C10.5196 14.8946 10.2652 15 10 15C9.73478 15 9.48043 14.8946 9.29289 14.7071C9.10536 14.5196 9 14.2652 9 14H3.5C3.10218 14 2.72064 13.842 2.43934 13.5607C2.15804 13.2794 2 12.8978 2 12.5V4.5ZM3.5 13H16.5C16.6326 13 16.7598 12.9473 16.8536 12.8536C16.9473 12.7598 17 12.6326 17 12.5V4.5C17 4.36739 16.9473 4.24021 16.8536 4.14645C16.7598 4.05268 16.6326 4 16.5 4H3.5C3.36739 4 3.24021 4.05268 3.14645 4.14645C3.05268 4.24021 3 4.36739 3 4.5V12.5C3 12.6326 3.05268 12.7598 3.14645 12.8536C3.24021 12.9473 3.36739 13 3.5 13ZM2 16.5C2 16.3674 2.05268 16.2402 2.14645 16.1464C2.24021 16.0527 2.36739 16 2.5 16H17.5C17.6326 16 17.7598 16.0527 17.8536 16.1464C17.9473 16.2402 18 16.3674 18 16.5C18 16.6326 17.9473 16.7598 17.8536 16.8536C17.7598 16.9473 17.6326 17 17.5 17H2.5C2.36739 17 2.24021 16.9473 2.14645 16.8536C2.05268 16.7598 2 16.6326 2 16.5Z" fill="#FFA500"/>
</svg>
