<svg width="19" height="19" viewBox="0 0 19 19" fill="none" xmlns="http://www.w3.org/2000/svg">
<path d="M17.0703 7.125C17.0703 6.84942 16.9608 6.58513 16.766 6.39027C16.5711 6.19541 16.3068 6.08594 16.0312 6.08594H13.5078V3.5625C13.5078 3.28692 13.3983 3.02263 13.2035 2.82777C13.0086 2.63291 12.7443 2.52344 12.4688 2.52344H2.96875C2.69317 2.52344 2.42888 2.63291 2.23402 2.82777C2.03916 3.02263 1.92969 3.28692 1.92969 3.5625V13.0625C1.92979 13.1463 1.95352 13.2283 1.99816 13.2992C2.0428 13.3701 2.10653 13.427 2.18203 13.4633C2.24202 13.4929 2.30809 13.5082 2.375 13.5078C2.47666 13.5052 2.5751 13.4716 2.65703 13.4113L5.46992 11.1328H5.49219V13.6562C5.49219 13.9318 5.60166 14.1961 5.79652 14.391C5.99138 14.5858 6.25567 14.6953 6.53125 14.6953H13.5301L16.343 16.9738C16.4249 17.0341 16.5233 17.0677 16.625 17.0703C16.6919 17.0707 16.758 17.0554 16.818 17.0258C16.8935 16.9895 16.9572 16.9326 17.0018 16.8617C17.0465 16.7908 17.0702 16.7088 17.0703 16.625V7.125ZM5.31406 10.2422C5.21222 10.2438 5.1135 10.2775 5.03203 10.3387L2.82031 12.1273V3.5625C2.82031 3.52313 2.83595 3.48538 2.86379 3.45754C2.89163 3.4297 2.92938 3.41406 2.96875 3.41406H12.4688C12.5081 3.41406 12.5459 3.4297 12.5737 3.45754C12.6015 3.48538 12.6172 3.52313 12.6172 3.5625V10.0938C12.6172 10.1331 12.6015 10.1709 12.5737 10.1987C12.5459 10.2265 12.5081 10.2422 12.4688 10.2422H5.31406ZM13.968 13.9012C13.8865 13.84 13.7878 13.8063 13.6859 13.8047H6.53125C6.49188 13.8047 6.45413 13.789 6.42629 13.7612C6.39845 13.7334 6.38281 13.6956 6.38281 13.6562V11.1328H12.4688C12.7443 11.1328 13.0086 11.0233 13.2035 10.8285C13.3983 10.6336 13.5078 10.3693 13.5078 10.0938V6.97656H16.0312C16.0706 6.97656 16.1084 6.9922 16.1362 7.02004C16.164 7.04788 16.1797 7.08563 16.1797 7.125V15.6898L13.968 13.9012Z" fill="#FFA500"/>
</svg>
