<svg width="500" height="500" viewBox="0 0 500 500" fill="none" xmlns="http://www.w3.org/2000/svg">
<path fill-rule="evenodd" clip-rule="evenodd" d="M250 101.687L209.479 184.187C207.237 188.753 203.918 192.703 199.807 195.698C195.696 198.692 190.918 200.641 185.885 201.375L95.0833 214.635L160.854 279.063C164.477 282.613 167.186 286.987 168.75 291.813C170.314 296.638 170.685 301.771 169.833 306.771L154.323 397.625L235.385 354.802C239.889 352.422 244.906 351.178 250 351.178C255.094 351.178 260.111 352.422 264.615 354.802L345.677 397.615L330.167 306.781C329.313 301.779 329.684 296.645 331.247 291.818C332.811 286.99 335.521 282.614 339.146 279.063L404.927 214.635L314.115 201.375C309.082 200.641 304.304 198.692 300.193 195.698C296.082 192.703 292.763 188.753 290.521 184.187L250 101.677V101.687ZM259.406 73.5833C258.546 71.8218 257.208 70.3373 255.545 69.2989C253.882 68.2605 251.961 67.7099 250 67.7099C248.039 67.7099 246.118 68.2605 244.455 69.2989C242.792 70.3373 241.454 71.8218 240.594 73.5833L190.781 175C189.25 178.104 186.302 180.26 182.875 180.76L71.5 197.021C62.8958 198.281 59.4583 208.906 65.6875 215L146.292 293.948C148.76 296.365 149.896 299.854 149.312 303.271L130.281 414.729C128.812 423.344 137.802 429.917 145.5 425.854L245.125 373.219C248.187 371.604 251.833 371.604 254.896 373.219L354.521 425.854C362.219 429.917 371.208 423.354 369.74 414.74L350.708 303.281C350.42 301.597 350.545 299.868 351.071 298.243C351.597 296.618 352.509 295.144 353.729 293.948L434.333 215C440.552 208.906 437.125 198.281 428.521 197.021L317.125 180.771C315.439 180.522 313.84 179.866 312.464 178.861C311.089 177.855 309.978 176.53 309.229 175L259.417 73.5833H259.406Z" fill="#FFA500"/>
</svg>
